<?xml version="1.0" encoding="iso-8859-1"?>
<!-- Generator: Adobe Illustrator 19.0.0, SVG Export Plug-In . SVG Version: 6.00 Build 0)  -->
<svg version="1.1" id="Layer_1" xmlns="http://www.w3.org/2000/svg" xmlns:xlink="http://www.w3.org/1999/xlink" x="0px" y="0px"
	 viewBox="0 0 297 297" style="enable-background:new 0 0 297 297;" xml:space="preserve">
<g>
	<g>
		<g>
			<g>
				<g>
					<g>
						<circle style="fill:#34495E;" cx="148.5" cy="148.5" r="148.5"/>
					</g>
				</g>
			</g>
		</g>
	</g>
	<path style="fill:#243F4F;" d="M296.98,146.909l-86.692-86.764c-2.573,0.423-4.808,0.674-6.788-0.646c-2-1-6-2-8-3
		c-15-7-32-9-47-12c-20.272-4.865-39.885,4.078-57.776,14.565L53.617,95.742c-0.437,1.243-0.825,2.494-1.117,3.758c-5,32-15,63,1,93
		c2,3,3.207,6.684,4.207,9.684c0.018,0.042,1.044,5.701,1.062,5.743l89.153,89.065c0.193,0.001,0.384,0.007,0.578,0.007
		c82.014,0,148.5-66.486,148.5-148.5C297,147.968,296.985,147.44,296.98,146.909z"/>
	<g>
		<g>
			<g>
				<g>
					<g>
						<path style="fill:#ECF0F1;" d="M62.02,209.123c-1.577,0.001-3.129-0.744-4.102-2.135
							c-12.617-18.047-19.286-39.257-19.286-61.339c0-59.094,48.077-107.171,107.172-107.171c23.178,0,45.242,7.283,63.808,21.063
							c2.218,1.646,2.682,4.777,1.035,6.994c-1.645,2.22-4.777,2.683-6.994,1.035c-16.83-12.49-36.833-19.092-57.849-19.092
							c-53.581,0-97.172,43.591-97.172,97.171c0,20.021,6.045,39.251,17.481,55.608c1.582,2.264,1.03,5.381-1.232,6.963
							C64.009,208.831,63.009,209.123,62.02,209.123z"/>
					</g>
				</g>
			</g>
		</g>
	</g>
	<g>
		<g>
			<g>
				<g>
					<g>
						<path style="fill:#D0D5D9;" d="M209.611,59.541c-18.2-13.508-39.766-20.755-62.444-21.036v10
							c20.516,0.28,40.02,6.846,56.485,19.065c2.217,1.647,5.35,1.185,6.994-1.035C212.293,64.318,211.829,61.187,209.611,59.541z"
							/>
					</g>
				</g>
			</g>
		</g>
	</g>
	<g>
		<path style="fill:#BFF796;" d="M146.158,260.563c46.7-21.092,90.605-67.712,113.647-113.645
			c4.428-8.826,9.431-25.418-7.163-36.432c-3.624-2.406-14.755-9.255-14.755-9.255c-4.65-2.917-11.185-1.249-14.597,3.726
			l-26.273,38.319c-3.411,4.975-2.407,11.373,2.244,14.29l10.332,7.666c-10.965,14.423-30.538,34.007-44.949,44.987l-7.681-10.355
			c-2.917-4.65-9.315-5.655-14.29-2.244l-38.319,26.272c-4.975,3.411-6.644,9.946-3.727,14.596c0,0,6.639,11.29,9.255,14.754
			C120.507,267.311,137.211,264.604,146.158,260.563z"/>
	</g>
	<g>
		<path style="fill:#AEE086;" d="M252.643,110.486c-3.624-2.406-14.755-9.255-14.755-9.255c-4.65-2.917-11.185-1.249-14.597,3.726
			l-26.273,38.319c-3.411,4.975-2.407,11.373,2.244,14.29l10.332,7.667c-10.965,14.423-30.538,34.007-44.949,44.987l-7.681-10.355
			c-2.085-3.323-5.947-4.773-9.797-4.091v64.317c46.322-21.305,89.762-67.57,112.638-113.171
			C264.233,138.092,269.237,121.5,252.643,110.486z"/>
	</g>
</g>
<g>
</g>
<g>
</g>
<g>
</g>
<g>
</g>
<g>
</g>
<g>
</g>
<g>
</g>
<g>
</g>
<g>
</g>
<g>
</g>
<g>
</g>
<g>
</g>
<g>
</g>
<g>
</g>
<g>
</g>
</svg>
